<?xml version="1.0" encoding="UTF-8"?>
<!DOCTYPE svg PUBLIC "-//W3C//DTD SVG 1.1//EN" "http://www.w3.org/Graphics/SVG/1.1/DTD/svg11.dtd">
<svg version="1.2" width="14.29mm" height="16.14mm" viewBox="0 0 1429 1614" preserveAspectRatio="xMidYMid" fill-rule="evenodd" stroke-width="28.222" stroke-linejoin="round" xmlns="http://www.w3.org/2000/svg" xmlns:ooo="http://xml.openoffice.org/svg/export" xmlns:xlink="http://www.w3.org/1999/xlink" xmlns:presentation="http://sun.com/xmlns/staroffice/presentation" xmlns:smil="http://www.w3.org/2001/SMIL20/" xmlns:anim="urn:oasis:names:tc:opendocument:xmlns:animation:1.0" xml:space="preserve">
 <defs class="ClipPathGroup">
  <clipPath id="presentation_clip_path" clipPathUnits="userSpaceOnUse">
   <rect x="0" y="0" width="1429" height="1614"/>
  </clipPath>
  <clipPath id="presentation_clip_path_shrink" clipPathUnits="userSpaceOnUse">
   <rect x="1" y="1" width="1427" height="1611"/>
  </clipPath>
 </defs>
 <defs class="TextShapeIndex">
  <g ooo:slide="id1" ooo:id-list="id3"/>
 </defs>
 <defs class="EmbeddedBulletChars">
  <g id="bullet-char-template-57356" transform="scale(0.00048828125,-0.00048828125)">
   <path d="M 580,1141 L 1163,571 580,0 -4,571 580,1141 Z"/>
  </g>
  <g id="bullet-char-template-57354" transform="scale(0.00048828125,-0.00048828125)">
   <path d="M 8,1128 L 1137,1128 1137,0 8,0 8,1128 Z"/>
  </g>
  <g id="bullet-char-template-10146" transform="scale(0.00048828125,-0.00048828125)">
   <path d="M 174,0 L 602,739 174,1481 1456,739 174,0 Z M 1358,739 L 309,1346 659,739 1358,739 Z"/>
  </g>
  <g id="bullet-char-template-10132" transform="scale(0.00048828125,-0.00048828125)">
   <path d="M 2015,739 L 1276,0 717,0 1260,543 174,543 174,936 1260,936 717,1481 1274,1481 2015,739 Z"/>
  </g>
  <g id="bullet-char-template-10007" transform="scale(0.00048828125,-0.00048828125)">
   <path d="M 0,-2 C -7,14 -16,27 -25,37 L 356,567 C 262,823 215,952 215,954 215,979 228,992 255,992 264,992 276,990 289,987 310,991 331,999 354,1012 L 381,999 492,748 772,1049 836,1024 860,1049 C 881,1039 901,1025 922,1006 886,937 835,863 770,784 769,783 710,716 594,584 L 774,223 C 774,196 753,168 711,139 L 727,119 C 717,90 699,76 672,76 641,76 570,178 457,381 L 164,-76 C 142,-110 111,-127 72,-127 30,-127 9,-110 8,-76 1,-67 -2,-52 -2,-32 -2,-23 -1,-13 0,-2 Z"/>
  </g>
  <g id="bullet-char-template-10004" transform="scale(0.00048828125,-0.00048828125)">
   <path d="M 285,-33 C 182,-33 111,30 74,156 52,228 41,333 41,471 41,549 55,616 82,672 116,743 169,778 240,778 293,778 328,747 346,684 L 369,508 C 377,444 397,411 428,410 L 1163,1116 C 1174,1127 1196,1133 1229,1133 1271,1133 1292,1118 1292,1087 L 1292,965 C 1292,929 1282,901 1262,881 L 442,47 C 390,-6 338,-33 285,-33 Z"/>
  </g>
  <g id="bullet-char-template-9679" transform="scale(0.00048828125,-0.00048828125)">
   <path d="M 813,0 C 632,0 489,54 383,161 276,268 223,411 223,592 223,773 276,916 383,1023 489,1130 632,1184 813,1184 992,1184 1136,1130 1245,1023 1353,916 1407,772 1407,592 1407,412 1353,268 1245,161 1136,54 992,0 813,0 Z"/>
  </g>
  <g id="bullet-char-template-8226" transform="scale(0.00048828125,-0.00048828125)">
   <path d="M 346,457 C 273,457 209,483 155,535 101,586 74,649 74,723 74,796 101,859 155,911 209,963 273,989 346,989 419,989 480,963 531,910 582,859 608,796 608,723 608,648 583,586 532,535 482,483 420,457 346,457 Z"/>
  </g>
  <g id="bullet-char-template-8211" transform="scale(0.00048828125,-0.00048828125)">
   <path d="M -4,459 L 1135,459 1135,606 -4,606 -4,459 Z"/>
  </g>
  <g id="bullet-char-template-61548" transform="scale(0.00048828125,-0.00048828125)">
   <path d="M 173,740 C 173,903 231,1043 346,1159 462,1274 601,1332 765,1332 928,1332 1067,1274 1183,1159 1299,1043 1357,903 1357,740 1357,577 1299,437 1183,322 1067,206 928,148 765,148 601,148 462,206 346,322 231,437 173,577 173,740 Z"/>
  </g>
 </defs>
 <g>
  <g id="id2" class="Master_Slide">
   <g id="bg-id2" class="Background"/>
   <g id="bo-id2" class="BackgroundObjects"/>
  </g>
 </g>
 <g class="SlideGroup">
  <g>
   <g id="container-id1">
    <g id="id1" class="Slide" clip-path="url(#presentation_clip_path)">
     <g class="Page">
      <g class="com.sun.star.drawing.ClosedBezierShape">
       <g id="id3">
        <rect class="BoundingBox" stroke="none" fill="none" x="12" y="12" width="1404" height="1589"/>
        <path fill="rgb(255,113,19)" stroke="none" d="M 314,345 C 299,345 288,333 288,319 288,304 299,292 314,292 L 1113,292 C 1128,292 1139,304 1139,319 1139,333 1128,345 1113,345 L 314,345 Z M 314,580 C 299,580 288,569 288,554 288,539 299,528 314,528 L 1113,528 C 1128,528 1139,539 1139,554 1139,569 1128,580 1113,580 L 314,580 Z M 314,815 C 299,815 288,804 288,790 288,775 299,763 314,763 L 1113,763 C 1128,763 1139,775 1139,790 1139,804 1128,815 1113,815 L 314,815 Z M 314,1286 C 299,1286 288,1275 288,1260 288,1246 299,1233 314,1233 L 555,1233 C 569,1233 581,1246 581,1260 581,1275 569,1286 555,1286 L 314,1286 Z M 314,1050 C 299,1050 288,1039 288,1024 288,1009 299,998 314,998 L 555,998 C 569,998 581,1009 581,1024 581,1039 569,1050 555,1050 L 314,1050 Z M 1281,1075 L 1281,247 C 1256,242 1233,229 1215,212 1197,194 1184,171 1179,145 L 248,145 C 243,171 230,194 212,212 194,229 171,242 146,247 L 146,1331 C 171,1336 194,1349 212,1366 230,1384 243,1407 248,1433 L 836,1433 836,1413 C 835,1411 834,1408 833,1406 L 815,1361 768,1351 C 745,1347 727,1333 715,1314 705,1294 703,1272 710,1250 L 725,1204 695,1166 C 681,1149 675,1126 679,1104 683,1082 696,1063 715,1051 L 756,1026 757,978 C 758,955 768,934 785,920 802,905 825,899 847,903 L 895,910 927,874 C 942,857 963,847 986,847 1008,847 1029,857 1044,874 L 1076,910 1124,903 C 1147,899 1169,905 1186,920 1204,934 1214,955 1214,978 L 1215,1026 1257,1051 C 1267,1057 1275,1065 1281,1075 Z M 1281,1331 L 1281,1161 C 1280,1163 1279,1165 1277,1166 L 1247,1204 1262,1250 C 1270,1272 1267,1294 1256,1314 1245,1334 1226,1347 1204,1351 L 1156,1361 1138,1406 C 1137,1408 1136,1411 1135,1413 L 1135,1433 1179,1433 C 1184,1407 1197,1384 1215,1366 1233,1349 1256,1336 1281,1331 Z M 1063,1081 C 1044,1061 1016,1049 986,1049 955,1049 928,1061 908,1081 888,1101 876,1128 876,1158 876,1189 888,1216 908,1236 928,1256 955,1268 986,1268 1016,1268 1044,1256 1063,1236 1083,1216 1096,1189 1096,1158 1096,1128 1083,1101 1063,1081 Z M 986,996 C 1031,996 1071,1014 1101,1043 1130,1073 1149,1113 1149,1158 1149,1203 1130,1244 1101,1273 1071,1303 1031,1321 986,1321 941,1321 900,1303 870,1273 841,1244 823,1203 823,1158 823,1113 841,1073 870,1043 900,1014 941,996 986,996 Z M 1004,908 L 1047,957 C 1052,963 1060,966 1069,965 L 1132,955 C 1140,954 1146,956 1152,960 1158,965 1161,971 1161,979 L 1162,1043 C 1163,1052 1167,1059 1174,1063 L 1229,1097 C 1236,1100 1239,1106 1241,1113 1242,1121 1240,1127 1236,1133 L 1195,1183 C 1190,1190 1189,1198 1191,1207 L 1212,1267 C 1214,1274 1214,1281 1210,1287 1206,1294 1201,1298 1193,1299 L 1130,1312 C 1122,1313 1115,1319 1112,1327 L 1089,1387 C 1086,1394 1081,1399 1074,1401 1067,1404 1060,1403 1054,1399 L 998,1369 C 990,1364 981,1364 974,1369 L 917,1399 C 911,1403 904,1404 897,1401 890,1399 885,1394 882,1387 L 859,1327 C 856,1319 849,1313 841,1312 L 778,1299 C 771,1298 765,1294 761,1287 758,1281 757,1274 759,1267 L 780,1207 C 783,1198 781,1190 776,1183 L 736,1133 C 731,1127 729,1121 730,1113 732,1106 736,1100 742,1097 L 797,1063 C 804,1059 809,1052 809,1043 L 810,979 C 810,971 813,965 819,960 825,956 832,954 839,955 L 902,965 C 911,966 919,963 925,957 L 967,908 C 972,903 978,900 986,900 993,900 999,903 1004,908 Z M 1082,1454 L 1082,1599 986,1517 889,1599 889,1454 C 907,1458 926,1455 943,1446 L 986,1422 1028,1446 C 1045,1455 1064,1458 1082,1454 Z M 1414,1565 L 1414,13 13,13 13,1565 836,1565 836,1485 224,1485 C 209,1485 198,1474 198,1459 198,1438 189,1418 175,1404 161,1390 141,1381 119,1381 105,1381 93,1369 93,1355 L 93,224 C 93,209 105,197 119,197 141,197 161,188 175,174 189,160 198,141 198,119 198,104 209,93 224,93 L 1203,93 C 1218,93 1229,104 1229,119 1229,141 1238,160 1252,174 1266,188 1286,197 1308,197 1322,197 1334,209 1334,224 L 1334,1355 C 1334,1369 1322,1381 1308,1381 1286,1381 1266,1390 1252,1404 1238,1418 1229,1437 1229,1459 1229,1474 1218,1485 1203,1485 L 1135,1485 1135,1565 1414,1565 Z"/>
       </g>
      </g>
     </g>
    </g>
   </g>
  </g>
 </g>
</svg>