<svg width="66" height="60" viewBox="0 0 66 60" fill="none" xmlns="http://www.w3.org/2000/svg">
<path d="M59.3428 52.643C58.7172 51.6024 58.1609 50.631 57.674 49.5206L55.8665 45.7739C55.5886 45.2187 55.1017 44.7333 54.4761 44.5252L49.2616 42.6516C48.4968 42.3742 47.6627 42.5824 47.1064 43.1375L44.2557 46.1907C43.5603 46.8848 42.5176 47.0232 41.6834 46.5378L38.694 44.7338C37.9986 45.1501 37.2337 45.4279 36.3997 45.4971L10.3969 49.0358C10.119 49.105 9.84064 49.105 9.49292 49.105C8.72811 49.105 7.96335 48.9661 7.26784 48.6887L2.05338 52.2274C1.49711 52.5744 1.1494 53.1296 1.01069 53.7539L0.0373506 58.3337C-0.17119 59.1662 0.524269 59.9991 1.35847 59.9991H61.429C62.5415 59.9991 63.1672 58.8196 62.6109 57.9174L59.3428 52.643Z" fill="#FED56C"/>
<path d="M65.7401 32.7294L63.6542 29.5373C64.0019 29.3292 64.2798 29.0514 64.4883 28.774C65.114 27.9415 65.3923 26.9701 65.2531 25.9987C65.114 25.0273 64.6275 24.1251 63.7929 23.5008C63.4451 23.2234 63.028 23.0148 62.611 22.9456L56.9101 6.4312C57.5357 5.59869 57.8141 4.55759 57.6749 3.51689C57.397 1.29622 55.3111 -0.299582 53.086 0.0474831C51.9735 0.186396 51.07 0.741564 50.3745 1.64329C49.8183 2.40658 49.5404 3.37799 49.5404 4.28017L33.8275 21.766L29.1692 12.3292C28.6823 11.427 27.7089 10.8718 26.7356 11.0107L16.7936 12.3983C15.8896 12.5373 15.1946 13.3698 15.3333 14.3412L16.0287 19.1983L4.20943 20.7946C3.23609 20.9335 2.54068 21.8352 2.67985 22.8066L3.86173 31.5494C4.07028 32.937 5.32203 33.8392 6.64253 33.7003L14.2906 32.6597L14.6384 35.4349L28.4045 33.5613L27.9875 30.7861L35.7743 29.6762L52.2519 7.8883C52.3911 7.95752 52.5997 8.02722 52.7389 8.02722L58.3704 24.3335C57.8141 25.0967 57.6055 26.0682 57.6749 26.9703C57.8141 27.9417 58.3704 28.8439 59.1352 29.4683C59.4131 29.6764 59.6915 29.8153 59.9693 29.9543L58.092 35.2276C57.7443 36.1298 57.188 36.9623 56.493 37.5867L55.1026 38.8355C54.5464 39.3214 54.9635 40.154 55.6589 40.0842L62.4724 39.0436C63.0286 38.9744 63.4457 38.6273 63.7236 38.1414L65.7396 34.6027C66.0878 33.9783 66.0878 33.2842 65.7405 32.7291L65.7401 32.7294ZM6.85148 24.8192C6.78213 24.3332 7.12937 23.8478 7.61629 23.7785L13.8041 22.946C14.291 22.8768 14.7775 23.2234 14.8468 23.7093C14.9162 24.1953 14.5689 24.6807 14.082 24.75L7.96358 25.5825H7.82439C7.33795 25.5825 6.92083 25.2354 6.85148 24.8192ZM14.7076 29.1211L8.51973 29.9536H8.38055C7.89363 29.9536 7.54638 29.6066 7.47656 29.1903C7.40721 28.7044 7.75445 28.2189 8.24137 28.1497L14.4292 27.3172C14.9161 27.248 15.4025 27.5945 15.4719 28.0805C15.6116 28.6357 15.2638 29.0519 14.7076 29.1211ZM28.6823 21.5579L21.0342 22.5985C20.4779 22.6678 20.0608 22.3212 19.9915 21.766L19.296 16.5619C19.2267 16.076 19.5739 15.5905 20.1302 15.5213L25.7617 14.758C26.1788 14.6888 26.5958 14.8969 26.735 15.3132L29.3074 20.5865C29.447 21.0028 29.1687 21.4887 28.6823 21.5579ZM53.6422 5.87618C52.6688 5.87618 51.8346 5.04367 51.8346 4.07221C51.8346 3.03159 52.6688 2.26824 53.6422 2.26824C54.6849 2.26824 55.4497 3.10075 55.4497 4.07221C55.4497 5.11284 54.6156 5.87618 53.6422 5.87618ZM61.4987 28.011C60.6646 28.011 59.9692 27.3169 59.9692 26.4845C59.9692 25.652 60.6646 24.9579 61.4987 24.9579C62.3329 24.9579 63.0283 25.652 63.0283 26.4845C63.0283 27.3169 62.3329 28.011 61.4987 28.011Z" fill="#FED56C"/>
<path d="M10.0493 47.0935L36.0521 43.5548C38.4857 43.2078 40.2239 40.9876 39.8761 38.4896C39.5284 36.0608 37.3038 34.3261 34.8008 34.6731L8.79807 38.2118C6.36441 38.5589 4.62626 40.7791 4.97401 43.2078C5.32174 45.7053 7.61613 47.44 10.0493 47.0934V47.0935ZM35.1482 37.1015C36.2607 36.9626 37.3733 37.7259 37.512 38.9055C37.6512 40.0158 36.8864 41.1261 35.7044 41.2645C34.5919 41.4034 33.4793 40.6401 33.3407 39.4606C33.2015 38.281 34.0356 37.2399 35.1482 37.1015ZM28.6825 37.934C29.7951 37.7951 30.9076 38.5584 31.0463 39.738C31.1855 40.8483 30.4207 41.9586 29.2387 42.097C28.1262 42.236 27.0137 41.4727 26.875 40.2931C26.7358 39.1832 27.5006 38.1422 28.6825 37.934ZM22.147 38.8362C23.2595 38.6973 24.372 39.4606 24.5107 40.6402C24.6499 41.7505 23.8851 42.8608 22.7032 42.9992C21.5906 43.1381 20.4781 42.3749 20.3394 41.1953C20.2002 40.0157 21.0344 38.9746 22.147 38.8362ZM15.6808 39.7379C16.7933 39.599 17.9059 40.3623 18.0445 41.5419C18.1837 42.6522 17.4189 43.7625 16.237 43.9009C15.1245 44.0399 14.0119 43.2766 13.8732 42.097C13.734 40.9179 14.4988 39.8768 15.6808 39.7379ZM9.1457 40.6401C10.2582 40.5012 11.3708 41.2645 11.5095 42.4441C11.6487 43.5544 10.8838 44.6647 9.70191 44.8031C8.58938 44.9421 7.47683 44.1788 7.33815 42.9992C7.19847 41.8196 8.03312 40.779 9.1457 40.6401Z" fill="#FED56C"/>
</svg>
